<svg xmlns="http://www.w3.org/2000/svg" viewBox="0 0 530 350" width="100%" height="auto" font-family="system-ui,-apple-system,Segoe UI,sans-serif" font-size="11">
<style>.ax{stroke:currentColor;opacity:.28}.gr{stroke:currentColor;opacity:.10}.tx{fill:currentColor}.mu{fill:currentColor;opacity:.62}.sr{stroke:currentColor;opacity:.45;stroke-dasharray:4 3}</style>
<line class="gr" x1="56" y1="300.0" x2="514" y2="300.0"/>
<text class="mu" x="49" y="303.5" text-anchor="end">0.979</text>
<line class="gr" x1="56" y1="235.0" x2="514" y2="235.0"/>
<text class="mu" x="49" y="238.5" text-anchor="end">0.980</text>
<line class="gr" x1="56" y1="170.0" x2="514" y2="170.0"/>
<text class="mu" x="49" y="173.5" text-anchor="end">0.980</text>
<line class="gr" x1="56" y1="105.0" x2="514" y2="105.0"/>
<text class="mu" x="49" y="108.5" text-anchor="end">0.981</text>
<line class="gr" x1="56" y1="40.0" x2="514" y2="40.0"/>
<text class="mu" x="49" y="43.5" text-anchor="end">0.982</text>
<text class="mu" x="56.0" y="316" text-anchor="middle">0.035</text>
<text class="mu" x="170.5" y="316" text-anchor="middle">0.073</text>
<text class="mu" x="285.0" y="316" text-anchor="middle">0.110</text>
<text class="mu" x="399.5" y="316" text-anchor="middle">0.148</text>
<text class="mu" x="514.0" y="316" text-anchor="middle">0.185</text>
<line class="ax" x1="56" y1="300" x2="514" y2="300"/>
<line class="ax" x1="56" y1="30" x2="56" y2="300"/>
<line class="sr" x1="122.2" y1="30" x2="122.2" y2="300"/>
<text class="mu" x="126.2" y="42">source 0.057</text>
<text class="tx" x="56" y="15" font-weight="600">Alien — 10s clip</text>
<text class="mu" x="56" y="27">1920x800 @23.98  ·  source h264 2102 kbps</text>
<text class="mu" x="293" y="342" text-anchor="middle">delivered bits per pixel per frame</text>
<text class="mu" transform="translate(13,175) rotate(-90)" text-anchor="middle">SSIM</text>
<path d="M206.8,198.8 L262.6,152.0 L358.4,106.9 L397.0,94.3 L481.9,70.0" fill="none" stroke="var(--rd-h264-hardware, #3b82f6)" stroke-width="1.8" stroke-linejoin="round"/>
<circle cx="206.8" cy="198.8" r="2.5" fill="var(--rd-h264-hardware, #3b82f6)"/>
<circle cx="262.6" cy="152.0" r="2.5" fill="var(--rd-h264-hardware, #3b82f6)"/>
<circle cx="358.4" cy="106.9" r="2.5" fill="var(--rd-h264-hardware, #3b82f6)"/>
<circle cx="397.0" cy="94.3" r="2.5" fill="var(--rd-h264-hardware, #3b82f6)"/>
<circle cx="481.9" cy="70.0" r="2.5" fill="var(--rd-h264-hardware, #3b82f6)"/>
<path d="M138.1,179.0 L146.9,166.4 L148.2,165.5 L148.2,165.5 L148.2,165.5" fill="none" stroke="var(--rd-h264-software, #1d4ed8)" stroke-width="1.8" stroke-linejoin="round"/>
<circle cx="138.1" cy="179.0" r="2.5" fill="var(--rd-h264-software, #1d4ed8)"/>
<circle cx="146.9" cy="166.4" r="2.5" fill="var(--rd-h264-software, #1d4ed8)"/>
<circle cx="148.2" cy="165.5" r="2.5" fill="var(--rd-h264-software, #1d4ed8)"/>
<circle cx="148.2" cy="165.5" r="2.5" fill="var(--rd-h264-software, #1d4ed8)"/>
<circle cx="148.2" cy="165.5" r="2.5" fill="var(--rd-h264-software, #1d4ed8)"/>
<path d="M114.6,270.0 L145.6,237.6 L196.2,201.5 L251.4,173.6 L304.7,158.3" fill="none" stroke="var(--rd-h265-hardware, #f97316)" stroke-width="1.8" stroke-linejoin="round"/>
<circle cx="114.6" cy="270.0" r="2.5" fill="var(--rd-h265-hardware, #f97316)"/>
<circle cx="145.6" cy="237.6" r="2.5" fill="var(--rd-h265-hardware, #f97316)"/>
<circle cx="196.2" cy="201.5" r="2.5" fill="var(--rd-h265-hardware, #f97316)"/>
<circle cx="251.4" cy="173.6" r="2.5" fill="var(--rd-h265-hardware, #f97316)"/>
<circle cx="304.7" cy="158.3" r="2.5" fill="var(--rd-h265-hardware, #f97316)"/>
<path d="M92.6,245.7 L93.4,244.8 L93.5,244.8 L93.5,243.9 L93.6,243.9" fill="none" stroke="var(--rd-h265-software, #c2410c)" stroke-width="1.8" stroke-linejoin="round"/>
<circle cx="92.6" cy="245.7" r="2.5" fill="var(--rd-h265-software, #c2410c)"/>
<circle cx="93.4" cy="244.8" r="2.5" fill="var(--rd-h265-software, #c2410c)"/>
<circle cx="93.5" cy="244.8" r="2.5" fill="var(--rd-h265-software, #c2410c)"/>
<circle cx="93.5" cy="243.9" r="2.5" fill="var(--rd-h265-software, #c2410c)"/>
<circle cx="93.6" cy="243.9" r="2.5" fill="var(--rd-h265-software, #c2410c)"/>
<path d="M70.8,238.5 L110.4,206.0 L159.4,177.2 L214.1,155.6 L262.2,140.3" fill="none" stroke="var(--rd-av1-software, #16a34a)" stroke-width="1.8" stroke-linejoin="round"/>
<circle cx="70.8" cy="238.5" r="2.5" fill="var(--rd-av1-software, #16a34a)"/>
<circle cx="110.4" cy="206.0" r="2.5" fill="var(--rd-av1-software, #16a34a)"/>
<circle cx="159.4" cy="177.2" r="2.5" fill="var(--rd-av1-software, #16a34a)"/>
<circle cx="214.1" cy="155.6" r="2.5" fill="var(--rd-av1-software, #16a34a)"/>
<circle cx="262.2" cy="140.3" r="2.5" fill="var(--rd-av1-software, #16a34a)"/>
<line x1="412" y1="30" x2="426" y2="30" stroke="var(--rd-av1-software, #16a34a)" stroke-width="2.4"/>
<text class="tx" x="431" y="33.5">AV1 so</text>
<line x1="412" y1="44" x2="426" y2="44" stroke="var(--rd-h264-hardware, #3b82f6)" stroke-width="2.4"/>
<text class="tx" x="431" y="47.5">H.264 ha</text>
<line x1="412" y1="58" x2="426" y2="58" stroke="var(--rd-h264-software, #1d4ed8)" stroke-width="2.4"/>
<text class="tx" x="431" y="61.5">H.264 so</text>
<line x1="412" y1="72" x2="426" y2="72" stroke="var(--rd-h265-hardware, #f97316)" stroke-width="2.4"/>
<text class="tx" x="431" y="75.5">H.265 ha</text>
<line x1="412" y1="86" x2="426" y2="86" stroke="var(--rd-h265-software, #c2410c)" stroke-width="2.4"/>
<text class="tx" x="431" y="89.5">H.265 so</text>
</svg>