<svg xmlns="http://www.w3.org/2000/svg" viewBox="0 0 530 350" width="100%" height="auto" font-family="system-ui,-apple-system,Segoe UI,sans-serif" font-size="11">
<style>.ax{stroke:currentColor;opacity:.28}.gr{stroke:currentColor;opacity:.10}.vg{stroke:currentColor;opacity:.07}.tx{fill:currentColor}.mu{fill:currentColor;opacity:.62}</style>
<line class="gr" x1="58" y1="298.0" x2="514" y2="298.0"/>
<text class="mu" x="51" y="301.5" text-anchor="end">0.979</text>
<line class="gr" x1="58" y1="235.0" x2="514" y2="235.0"/>
<text class="mu" x="51" y="238.5" text-anchor="end">0.980</text>
<line class="gr" x1="58" y1="172.0" x2="514" y2="172.0"/>
<text class="mu" x="51" y="175.5" text-anchor="end">0.980</text>
<line class="gr" x1="58" y1="109.0" x2="514" y2="109.0"/>
<text class="mu" x="51" y="112.5" text-anchor="end">0.981</text>
<line class="gr" x1="58" y1="46.0" x2="514" y2="46.0"/>
<text class="mu" x="51" y="49.5" text-anchor="end">0.982</text>
<line class="vg" x1="72.0" y1="34" x2="72.0" y2="298"/>
<text class="mu" x="72.0" y="314" text-anchor="middle">OK</text>
<line class="vg" x1="179.5" y1="34" x2="179.5" y2="298"/>
<text class="mu" x="179.5" y="314" text-anchor="middle">Good</text>
<line class="vg" x1="287.0" y1="34" x2="287.0" y2="298"/>
<text class="mu" x="287.0" y="314" text-anchor="middle">Excellent</text>
<line class="vg" x1="394.5" y1="34" x2="394.5" y2="298"/>
<text class="mu" x="394.5" y="314" text-anchor="middle">Stellar</text>
<line class="vg" x1="502.0" y1="34" x2="502.0" y2="298"/>
<text class="mu" x="502.0" y="314" text-anchor="middle">Insane</text>
<line class="ax" x1="58" y1="298" x2="514" y2="298"/>
<line class="ax" x1="58" y1="34" x2="58" y2="298"/>
<text class="tx" x="58" y="15" font-weight="600">Alien — 10s clip</text>
<text class="mu" x="58" y="27">1920x800 @23.98 · source h264 2102 kbps = 0.0571 bpp</text>
<text class="mu" transform="translate(13,175) rotate(-90)" text-anchor="middle">SSIM</text>
<path d="M72.0,199.5 L179.5,154.8 L287.0,111.8 L394.5,99.8 L502.0,76.5" fill="none" stroke="var(--rd-h264-hardware, #3b82f6)" stroke-width="1.8" stroke-linejoin="round"/>
<circle cx="72.0" cy="199.5" r="2.6" fill="none" stroke="var(--rd-h264-hardware, #3b82f6)" stroke-width="1.4"/>
<circle cx="179.5" cy="154.8" r="2.6" fill="none" stroke="var(--rd-h264-hardware, #3b82f6)" stroke-width="1.4"/>
<circle cx="287.0" cy="111.8" r="2.6" fill="none" stroke="var(--rd-h264-hardware, #3b82f6)" stroke-width="1.4"/>
<circle cx="394.5" cy="99.8" r="2.6" fill="none" stroke="var(--rd-h264-hardware, #3b82f6)" stroke-width="1.4"/>
<circle cx="502.0" cy="76.5" r="2.6" fill="none" stroke="var(--rd-h264-hardware, #3b82f6)" stroke-width="1.4"/>
<path d="M72.0,180.6 L179.5,168.6 L287.0,167.7 L394.5,167.7 L502.0,167.7" fill="none" stroke="var(--rd-h264-software, #1d4ed8)" stroke-width="1.8" stroke-linejoin="round"/>
<circle cx="72.0" cy="180.6" r="2.6" fill="none" stroke="var(--rd-h264-software, #1d4ed8)" stroke-width="1.4"/>
<circle cx="179.5" cy="168.6" r="2.6" fill="none" stroke="var(--rd-h264-software, #1d4ed8)" stroke-width="1.4"/>
<circle cx="287.0" cy="167.7" r="2.6" fill="none" stroke="var(--rd-h264-software, #1d4ed8)" stroke-width="1.4"/>
<circle cx="394.5" cy="167.7" r="2.6" fill="none" stroke="var(--rd-h264-software, #1d4ed8)" stroke-width="1.4"/>
<circle cx="502.0" cy="167.7" r="2.6" fill="none" stroke="var(--rd-h264-software, #1d4ed8)" stroke-width="1.4"/>
<path d="M72.0,267.5 L179.5,236.5 L287.0,202.1 L394.5,175.4 L502.0,160.8" fill="none" stroke="var(--rd-h265-hardware, #f97316)" stroke-width="1.8" stroke-linejoin="round"/>
<circle cx="72.0" cy="267.5" r="2.9" fill="var(--rd-h265-hardware, #f97316)"/>
<circle cx="179.5" cy="236.5" r="2.6" fill="none" stroke="var(--rd-h265-hardware, #f97316)" stroke-width="1.4"/>
<circle cx="287.0" cy="202.1" r="2.6" fill="none" stroke="var(--rd-h265-hardware, #f97316)" stroke-width="1.4"/>
<circle cx="394.5" cy="175.4" r="2.6" fill="none" stroke="var(--rd-h265-hardware, #f97316)" stroke-width="1.4"/>
<circle cx="502.0" cy="160.8" r="2.6" fill="none" stroke="var(--rd-h265-hardware, #f97316)" stroke-width="1.4"/>
<path d="M72.0,244.2 L179.5,243.4 L287.0,242.5 L394.5,243.4 L502.0,242.5" fill="none" stroke="var(--rd-h265-software, #c2410c)" stroke-width="1.8" stroke-linejoin="round"/>
<circle cx="72.0" cy="244.2" r="2.9" fill="var(--rd-h265-software, #c2410c)"/>
<circle cx="179.5" cy="243.4" r="2.6" fill="none" stroke="var(--rd-h265-software, #c2410c)" stroke-width="1.4"/>
<circle cx="287.0" cy="242.5" r="2.6" fill="none" stroke="var(--rd-h265-software, #c2410c)" stroke-width="1.4"/>
<circle cx="394.5" cy="243.4" r="2.6" fill="none" stroke="var(--rd-h265-software, #c2410c)" stroke-width="1.4"/>
<circle cx="502.0" cy="242.5" r="2.6" fill="none" stroke="var(--rd-h265-software, #c2410c)" stroke-width="1.4"/>
<path d="M72.0,237.4 L179.5,206.4 L287.0,178.9 L394.5,158.2 L502.0,143.6" fill="none" stroke="var(--rd-av1-software, #16a34a)" stroke-width="1.8" stroke-linejoin="round"/>
<circle cx="72.0" cy="237.4" r="2.9" fill="var(--rd-av1-software, #16a34a)"/>
<circle cx="179.5" cy="206.4" r="2.9" fill="var(--rd-av1-software, #16a34a)"/>
<circle cx="287.0" cy="178.9" r="2.6" fill="none" stroke="var(--rd-av1-software, #16a34a)" stroke-width="1.4"/>
<circle cx="394.5" cy="158.2" r="2.6" fill="none" stroke="var(--rd-av1-software, #16a34a)" stroke-width="1.4"/>
<circle cx="502.0" cy="143.6" r="2.6" fill="none" stroke="var(--rd-av1-software, #16a34a)" stroke-width="1.4"/>
<line x1="418" y1="34" x2="432" y2="34" stroke="var(--rd-av1-software, #16a34a)" stroke-width="2.4"/>
<text class="tx" x="437" y="37.5">AV1 so</text>
<line x1="418" y1="48" x2="432" y2="48" stroke="var(--rd-h264-hardware, #3b82f6)" stroke-width="2.4"/>
<text class="tx" x="437" y="51.5">H.264 ha</text>
<line x1="418" y1="62" x2="432" y2="62" stroke="var(--rd-h264-software, #1d4ed8)" stroke-width="2.4"/>
<text class="tx" x="437" y="65.5">H.264 so</text>
<line x1="418" y1="76" x2="432" y2="76" stroke="var(--rd-h265-hardware, #f97316)" stroke-width="2.4"/>
<text class="tx" x="437" y="79.5">H.265 ha</text>
<line x1="418" y1="90" x2="432" y2="90" stroke="var(--rd-h265-software, #c2410c)" stroke-width="2.4"/>
<text class="tx" x="437" y="93.5">H.265 so</text>
</svg>